<svg height="512" viewBox="0 0 512 512" width="512" xmlns="http://www.w3.org/2000/svg"><g id="filled_outline" data-name="filled outline"><path d="m336 216-24 32-40 16-24 16-16-16v-16l24-8 40-24 24-48 16.468 39.404z" fill="#fdc9a6"/><path d="m360 320 24 72 48 64 24-40-32-40-24-96z" fill="#a8a8a8"/><path d="m280 456-16 16v16h64v-32z" fill="#683b0d"/><path d="m400 267.155v-11.155h-64l-56 96v104h48v-96l32-32 25.26-25.26a50.324 50.324 0 0 0 14.74-35.585z" fill="#cbcbcb"/><path d="m224 416v32l-16 40h32l16-40v-26l-24-30z" fill="#c38325"/><path d="m112 408-27.095 20.321a8 8 0 0 0 -2.628 9.372l13.723 34.307 24-8-8-24 16-16z" fill="#c38325"/><path d="m400 256v-98.559a18 18 0 0 0 -3.014-9.971l-20.986-31.54h-40l8 16-23.768 32.733a27.249 27.249 0 0 0 -3.8 24.629 27.25 27.25 0 0 0 13.668 15.756l5.9 2.952v48z" fill="#ff6268"/><path d="m365.933 175.822 18.067 48.178-2.683 38.78-9.317 17.22 16.425 14.606 19.575-3.606 8-75-18.247-51.752a16.931 16.931 0 0 0 -21.942-10.212 16.932 16.932 0 0 0 -9.878 21.786z" fill="#fdc9a6"/><path d="m432 456v24h32l16-40-24-24z" fill="#683b0d"/><path d="m328 59.93v32a8 8 0 0 0 8 8h8v16h32v-16l8-24h-16l-8-16z" fill="#fdc9a6"/><path d="m328 59.93-3.13-9.389a20.165 20.165 0 0 1 7.945-23.154 20.162 20.162 0 0 1 22.37 0l12.815 8.543h14.774a14.928 14.928 0 0 1 13.352 8.252 14.928 14.928 0 0 1 -.931 14.956l-11.195 16.792h-16l-8-16z" fill="#683b0d"/><path d="m264 344a36.612 36.612 0 0 0 8.845-37.466l-.845-2.534 12.172 3.043a32.3 32.3 0 0 1 23.836 25 32.3 32.3 0 0 1 -12.291 32.171l-15.717 11.786z" fill="#c38325"/><path d="m64 320-16 8-8 16-16 8 16 32 32-8 24 8 4.032 16.127a32 32 0 0 0 19.16 21.95l24.808 9.923v16l-16 40h32l16-32v-24l48-16 8-24 32 40 27 16 14.372 40h22.628l-8-56-24-24v-16.4a49.1 49.1 0 0 0 -18.427-38.34 78.763 78.763 0 0 0 -49.2-17.26h-14.773a78.758 78.758 0 0 0 -11.138.792l-32.231 4.6a78.007 78.007 0 0 1 -35.7-3.219l-30.531-10.173-24-32z" fill="#ea9d2d"/><path d="m245.66 277.66c-.49.49-112.05 64.35-112.05 64.35l-30.95 46.43a8 8 0 1 1 -13.32-8.88l32-48a8.08 8.08 0 0 1 2.69-2.51l110.1-62.92z" fill="#0292c9"/><circle cx="72" cy="343" fill="#c38325" r="7"/><path d="m485.657 434.343-23.685-23.685-30.635-38.292-19.361-77.447a7.98 7.98 0 0 0 3.975-6.035l8-72a8.007 8.007 0 0 0 -.406-3.544l-15.571-44.164a69.369 69.369 0 0 0 -11.628-37.11l-12.346-18.554v-12.284l7.251-21.753 10.6-15.9a22.928 22.928 0 0 0 -19.077-35.645h-12.352l-10.8-7.2a28.164 28.164 0 0 0 -42.342 32.34l2.72 8.157v30.7a16.019 16.019 0 0 0 16 16 8 8 0 0 0 -7.155 11.578l5.826 11.653-20.913 28.8a35.25 35.25 0 0 0 -6.313 15.407 8.008 8.008 0 0 0 -.5.849l-17.06 34.12-37.249 22.349-23.166 7.727a8 8 0 0 0 -5.47 7.59v16a8 8 0 0 0 2.343 5.657l.594.593-99.8 57.029-18.237-6.079-22.5-30a8 8 0 0 0 -13.056.362l-14.822 22.238-14.1 7.05a8 8 0 0 0 -3.577 3.577l-6.808 13.615-13.615 6.808a8 8 0 0 0 -3.577 10.733l16 32a8 8 0 0 0 9.095 4.183l29.74-7.435 17.62 5.869 2.967 11.866a39.808 39.808 0 0 0 3.142 8.373l-20.209 15.161a8 8 0 0 0 -2.628 9.371l16 40a7.994 7.994 0 0 0 9.958 4.619l24-8a8 8 0 0 0 5.059-10.12l-6.436-19.31 7.631-7.63 7.216 2.886v16.695l-15.155 30.311a8 8 0 0 0 7.155 11.578h32a8 8 0 0 0 6.656-3.562l16-24a8.005 8.005 0 0 0 1.344-4.438v-26.234l32-10.666v19.359l-15.428 38.57a8 8 0 0 0 7.428 10.971h32a8 8 0 0 0 7.428-5.029l16-40a8 8 0 0 0 .572-2.971v-6.7l11.388 6.752-1.769 3.015-15.276 15.276a8 8 0 0 0 -2.343 5.657v16a8 8 0 0 0 8 8h64a8 8 0 0 0 8-8v-124.687l22.5-22.5 17.907 53.72a8 8 0 0 0 1.189 2.27l46.404 61.863v21.334a8 8 0 0 0 8 8h32a8 8 0 0 0 7.428-5.029l16-40a8 8 0 0 0 -1.771-8.628zm-95.449-267.435 17.639 50.027-7.118 64.056-7.979 1.183-8.3-6.779 4.668-12.874a8.017 8.017 0 0 0 .461-2.191l2.4-35.795a8 8 0 0 0 -.491-3.344l-18.067-48.177a8.931 8.931 0 1 1 16.784-6.106zm-52.955-132.865a12.134 12.134 0 0 1 13.5 0l12.814 8.543a8 8 0 0 0 4.433 1.344h14.774a6.928 6.928 0 0 1 5.765 10.77l-8.82 13.23h-6.775l-5.789-11.578a8 8 0 0 0 -7.155-4.422h-26.234l-1.306-3.919a12.191 12.191 0 0 1 4.793-13.968zm6.747 57.887h-8v-24h19.056l5.789 11.578a8 8 0 0 0 7.155 4.422h4.9l-4.489 13.47a8.006 8.006 0 0 0 -.411 2.53v8h-16v-8a8 8 0 0 0 -8-8zm-17.294 77.433 23.768-32.733a8 8 0 0 0 .681-8.278l-2.211-4.422h22.77l11.311 17c.931 1.4 1.784 2.837 2.574 4.3a24.942 24.942 0 0 0 -27.157 33.4l17.458 46.56-1.527 22.81h-30.373v-40a8 8 0 0 0 -4.422-7.155l-5.9-2.952a19.25 19.25 0 0 1 -6.968-28.53zm-86.706 84.403 18.53-6.176a8.075 8.075 0 0 0 1.586-.73l40-24a8.006 8.006 0 0 0 3.039-3.282l9.725-19.449a35.04 35.04 0 0 0 13.638 12.071l1.482.741v.389l-21.054 28.072-37.917 15.167a7.991 7.991 0 0 0 -1.467.772l-18.542 12.365-9.02-9.019zm2.343 31.891a8 8 0 0 0 10.095 1l23.307-15.538 39.226-15.69a8 8 0 0 0 3.429-2.629l9.6-12.8v13.837l-29.653 50.833a39.962 39.962 0 0 0 -12.235-5.388l-12.172-3.043a8 8 0 0 0 -9.529 10.291l.844 2.534a28.416 28.416 0 0 1 -3.773 25.539 86.915 86.915 0 0 0 -33.109-6.6h-14.773a87.128 87.128 0 0 0 -12.269.872l-32.232 4.6a70.261 70.261 0 0 1 -20.385-.1l89.953-51.4zm49.829 71.143a57.45 57.45 0 0 0 -9.6-9.786c-2.2-1.756-4.48-3.386-6.825-4.912a44.2 44.2 0 0 0 6.884-27.193 24.292 24.292 0 0 1 9.542 41.891zm-222.112 11.439-25.774 6.444-9.553-19.105 8.845-4.423a8 8 0 0 0 3.577-3.577l6.808-13.615 13.615-6.808a7.994 7.994 0 0 0 3.078-2.717l9.728-14.592 17.216 22.954a8 8 0 0 0 3.87 2.79l14.064 4.687-22.8 34.2-18.2-6.068a7.992 7.992 0 0 0 -4.474-.17zm30.566 93.786-10.921-27.3 15.662-11.747a39.937 39.937 0 0 0 7.407 4.937l-6.431 6.431a8 8 0 0 0 -1.932 8.187l5.47 16.41zm133.957 17.975h-14.767l11.612-29.029a8 8 0 0 0 .572-2.971v-30.7l2.939-8.818 13.061 16.325v21.652zm37.417-4.687 13.657-13.656a8 8 0 0 0 1.191-1.531l7.146 19.874h-21.994zm39 4.687-12.48-34.707a8 8 0 0 0 -3.449-4.175l-25.733-15.256-31.091-38.862a8 8 0 0 0 -13.836 2.468l-6.736 20.206-44.205 14.736a8 8 0 0 0 -5.47 7.59v29.578l-12.281 18.422h-14.775l10.211-20.422a7.994 7.994 0 0 0 .845-3.578v-24a8 8 0 0 0 -5.029-7.428l-24.808-9.923a24.061 24.061 0 0 1 -14.37-16.462l-3.173-12.694 26.647-39.972.734.245a86.467 86.467 0 0 0 39.358 3.549l32.232-4.6a70.831 70.831 0 0 1 10.009-.715h14.776a71.018 71.018 0 0 1 44.2 15.506 40.9 40.9 0 0 1 15.424 32.094v16.4a8 8 0 0 0 2.343 5.657l22.115 22.114 6.318 44.229zm11.346-125.657a8 8 0 0 0 -2.346 5.657v60.686l-16-16v-13.086a57.141 57.141 0 0 0 -3.873-20.693l.39-.293a40.5 40.5 0 0 0 15.336-40.14 40.042 40.042 0 0 0 -5.81-14.1l30.557-52.374h30.971l-4.087 11.273a8 8 0 0 0 2.459 8.921l12.257 10.018c-.824.991-1.678 1.957-2.592 2.871zm48.81-26.182 19.762-19.761a58.328 58.328 0 0 0 6.128-7.229l19.193 76.773a7.978 7.978 0 0 0 1.514 3.056l28.525 35.657-15.017 25.028-40.082-53.444zm87.427 143.839h-18.583v-13.784l17.588-29.316 13.025 13.025z"/><circle cx="72" cy="343" r="7"/></g></svg>