<?xml version="1.0" encoding="iso-8859-1"?>
<!-- Generator: Adobe Illustrator 22.1.0, SVG Export Plug-In . SVG Version: 6.00 Build 0)  -->
<svg xmlns="http://www.w3.org/2000/svg" xmlns:xlink="http://www.w3.org/1999/xlink" version="1.1" id="Layer_3" x="0px" y="0px" viewBox="0 0 64 64" style="enable-background:new 0 0 64 64;" xml:space="preserve" width="512" height="512">
<g>
	<g>
		<rect x="24" y="4" style="fill:#CCCCCC;" width="38" height="56"/>
	</g>
	<g>
		<rect x="24" y="4" style="fill:#F2F2F2;" width="34" height="56"/>
	</g>
	<g>
		<rect x="20" y="50" style="fill:#00716C;" width="4" height="4"/>
	</g>
	<g>
		<rect x="20" y="42" style="fill:#F26D40;" width="4" height="4"/>
	</g>
	<g>
		<rect x="20" y="34" style="fill:#ED1C24;" width="4" height="4"/>
	</g>
	<g>
		<rect x="20" y="26" style="fill:#FF00FF;" width="4" height="4"/>
	</g>
	<g>
		<rect x="20" y="18" style="fill:#88C5FF;" width="4" height="4"/>
	</g>
	<g>
		<rect x="20" y="10" style="fill:#45637F;" width="4" height="4"/>
	</g>
	<g>
		<polygon style="fill:#8B4B62;" points="2,33 8,39 14,33 10,33 10,25 6,25 6,33   "/>
	</g>
	<g>
		<polygon style="fill:#BB6F6B;" points="12,33 10,33 8,33 8,25 6,25 6,33 4,33 2,33 7,38   "/>
	</g>
	<g>
		<circle style="fill:#DA8906;" cx="32" cy="30" r="4"/>
	</g>
	<g>
		<ellipse style="fill:#F1C006;" cx="30.5" cy="30" rx="2.5" ry="3.703"/>
	</g>
	<g>
		<rect x="28" y="8" style="fill:#486B03;" width="30" height="6"/>
	</g>
	<g>
		<rect x="28" y="11" style="fill:#A1BF34;" width="30" height="3"/>
	</g>
	<g>
		<path d="M62,61H24c-0.553,0-1-0.447-1-1V4c0-0.552,0.447-1,1-1h38c0.553,0,1,0.448,1,1v56C63,60.553,62.553,61,62,61z M25,59h36V5    H25V59z"/>
	</g>
	<g>
		<path d="M24,15h-4c-0.553,0-1-0.448-1-1v-4c0-0.552,0.447-1,1-1h4c0.553,0,1,0.448,1,1v4C25,14.552,24.553,15,24,15z M21,13h2v-2    h-2V13z"/>
	</g>
	<g>
		<path d="M24,23h-4c-0.553,0-1-0.448-1-1v-4c0-0.552,0.447-1,1-1h4c0.553,0,1,0.448,1,1v4C25,22.552,24.553,23,24,23z M21,21h2v-2    h-2V21z"/>
	</g>
	<g>
		<path d="M24,31h-4c-0.553,0-1-0.448-1-1v-4c0-0.552,0.447-1,1-1h4c0.553,0,1,0.448,1,1v4C25,30.552,24.553,31,24,31z M21,29h2v-2    h-2V29z"/>
	</g>
	<g>
		<path d="M24,39h-4c-0.553,0-1-0.447-1-1v-4c0-0.553,0.447-1,1-1h4c0.553,0,1,0.447,1,1v4C25,38.553,24.553,39,24,39z M21,37h2v-2    h-2V37z"/>
	</g>
	<g>
		<path d="M24,47h-4c-0.553,0-1-0.447-1-1v-4c0-0.553,0.447-1,1-1h4c0.553,0,1,0.447,1,1v4C25,46.553,24.553,47,24,47z M21,45h2v-2    h-2V45z"/>
	</g>
	<g>
		<path d="M24,55h-4c-0.553,0-1-0.447-1-1v-4c0-0.553,0.447-1,1-1h4c0.553,0,1,0.447,1,1v4C25,54.553,24.553,55,24,55z M21,53h2v-2    h-2V53z"/>
	</g>
	<g>
		<path d="M58,15H28c-0.553,0-1-0.448-1-1V8c0-0.552,0.447-1,1-1h30c0.553,0,1,0.448,1,1v6C59,14.552,58.553,15,58,15z M29,13h28V9    H29V13z"/>
	</g>
	<g>
		<rect x="27" y="17" width="32" height="2"/>
	</g>
	<g>
		<rect x="27" y="55" width="32" height="2"/>
	</g>
	<g>
		<rect x="27" y="51" width="32" height="2"/>
	</g>
	<g>
		<rect x="27" y="47" width="32" height="2"/>
	</g>
	<g>
		<rect x="46" y="25" width="13" height="2"/>
	</g>
	<g>
		<rect x="46" y="29" width="13" height="2"/>
	</g>
	<g>
		<rect x="46" y="33" width="13" height="2"/>
	</g>
	<g>
		<path d="M32,35c-2.757,0-5-2.243-5-5s2.243-5,5-5s5,2.243,5,5S34.757,35,32,35z M32,27c-1.654,0-3,1.346-3,3s1.346,3,3,3    s3-1.346,3-3S33.654,27,32,27z"/>
	</g>
	<g>
		<path d="M13.059,16.336L8.295,3h-0.59L2.941,16.336l-1.883-0.673l5-14C6.2,1.266,6.577,1,7,1h2c0.423,0,0.8,0.266,0.941,0.664    l5,14L13.059,16.336z"/>
	</g>
	<g>
		<rect x="4" y="9" width="8" height="2"/>
	</g>
	<g>
		<path d="M14,63H2c-0.391,0-0.745-0.228-0.908-0.582s-0.105-0.772,0.149-1.068L11.826,49H2v-2h12c0.391,0,0.745,0.228,0.908,0.582    s0.105,0.772-0.149,1.068L4.174,61H14V63z"/>
	</g>
	<g>
		<path d="M8,40c-0.256,0-0.512-0.098-0.707-0.293l-6-6c-0.286-0.286-0.372-0.716-0.217-1.09C1.23,32.244,1.596,32,2,32h3v-7    c0-0.552,0.447-1,1-1h4c0.553,0,1,0.448,1,1v7h3c0.404,0,0.77,0.244,0.924,0.617c0.155,0.374,0.069,0.804-0.217,1.09l-6,6    C8.512,39.902,8.256,40,8,40z M4.414,34L8,37.586L11.586,34H10c-0.553,0-1-0.447-1-1v-7H7v7c0,0.553-0.447,1-1,1H4.414z"/>
	</g>
</g>
</svg>
