<svg id="Filled" height="512" viewBox="0 0 512 512" width="512" xmlns="http://www.w3.org/2000/svg"><path d="m24 384h464v64h-464z" fill="#b37a60"/><path d="m24 272h464v64h-464z" fill="#b37a60"/><path d="m24 160h464v64h-464z" fill="#b37a60"/><g fill="#95573a"><path d="m120 448h-64v-336l32-48 32 48z"/><path d="m232 448h-64v-336l32-48 32 48z"/><path d="m344 448h-64v-336l32-48 32 48z"/><path d="m456 448h-64v-336l32-48 32 48z"/></g><path d="m488 152h-24v-40a8 8 0 0 0 -1.344-4.438l-32-48a8 8 0 0 0 -13.312 0l-32 48a8 8 0 0 0 -1.344 4.438v40h-32v-40a8 8 0 0 0 -1.344-4.438l-32-48a8 8 0 0 0 -13.312 0l-32 48a8 8 0 0 0 -1.344 4.438v40h-32v-40a8 8 0 0 0 -1.344-4.438l-32-48a8 8 0 0 0 -13.312 0l-32 48a8 8 0 0 0 -1.344 4.438v40h-32v-40a7.993 7.993 0 0 0 -1.344-4.438l-32-48a8 8 0 0 0 -13.312 0l-32 48a7.993 7.993 0 0 0 -1.344 4.438v40h-24a8 8 0 0 0 -8 8v64a8 8 0 0 0 8 8h24v32h-24a8 8 0 0 0 -8 8v64a8 8 0 0 0 8 8h24v32h-24a8 8 0 0 0 -8 8v64a8 8 0 0 0 8 8h464a8 8 0 0 0 8-8v-64a8 8 0 0 0 -8-8h-24v-32h24a8 8 0 0 0 8-8v-64a8 8 0 0 0 -8-8h-24v-32h24a8 8 0 0 0 8-8v-64a8 8 0 0 0 -8-8zm-440 288h-16v-48h16zm0-112h-16v-48h16zm0-112h-16v-48h16zm64-56v280h-48v-325.578l24-36 24 36zm48 280h-32v-48h32zm0-64h-32v-32h32zm0-48h-32v-48h32zm0-64h-32v-32h32zm0-48h-32v-48h32zm64 224h-48v-325.578l24-36 24 36zm48 0h-32v-48h32zm0-64h-32v-32h32zm0-48h-32v-48h32zm0-64h-32v-32h32zm0-48h-32v-48h32zm64 224h-48v-325.578l24-36 24 36zm48 0h-32v-48h32zm0-64h-32v-32h32zm0-48h-32v-48h32zm0-64h-32v-32h32zm0-48h-32v-48h32zm64 224h-48v-325.578l24-36 24 36zm32-48v48h-16v-48zm0-112v48h-16v-48zm0-64h-16v-48h16z"/><circle cx="88" cy="128" r="8"/><circle cx="200" cy="128" r="8"/><circle cx="312" cy="128" r="8"/><circle cx="424" cy="128" r="8"/><circle cx="88" cy="400" r="8"/><circle cx="200" cy="400" r="8"/><circle cx="312" cy="400" r="8"/><circle cx="424" cy="400" r="8"/></svg>