<svg id="Capa_1" enable-background="new 0 0 512.002 512.002" height="512" viewBox="0 0 512.002 512.002" width="512" xmlns="http://www.w3.org/2000/svg"><g><g><path d="m400.911 276.821c39.864-71.48 95.23-105.547 101.09-110.82-65.82 13.16-126.66 49.39-168.87 100.72 3.21-55.61 17.67-110.33 42.87-160.72-62.14 31.07-104.95 89.56-116.72 156.55h-.01c-27.78-77.25-81.51-143.5-153.27-186.55 29.41 54.309 69.027 97.227 84.56 181.74-39.37-57.2-110.55-91.74-180.56-91.74 44.29 33.22 84.74 73.64 116.7 119.3-31.94-19.01-74.04-29.3-111.55-29.3h-5.15c4.737 4.197 79.352 42.905 93.32 120.06l34.68 16.94h228l42.68-16.94c13.989-77.271 89.113-116.332 93.32-120.06h-5.15c-31.48 0-67.72 7.25-95.94 20.82z" fill="#a7e8a6"/><path d="m408.681 376.061c-16.018-.72-31.557 4.943-43.36 15.83-8.25-9.72-20.57-15.89-34.32-15.89-11.27 0-21.59 4.15-29.49 11.01-16.164-24.884-44.095-41.01-75.51-41.01-33.247 0-63.067 18.146-78.76 46.42-11.772-11.148-27.525-17.096-43.92-16.36-31.9 1.4-57.32 27.7-57.32 59.94h420c0-32.24-25.42-58.54-57.32-59.94z" fill="#918787"/></g><g><path d="m4 174.001c33.722 25.294 64.456 54.428 90.393 85.547-25.028-8.686-52.74-13.546-79.243-13.546h-5.15c-4.407 0-8.294 2.885-9.571 7.102-1.277 4.218.357 8.774 4.024 11.218 5.087 4.502 68.454 36.897 86.682 103.272-28.5 6.117-50.301 29.401-54.423 58.407h-26.711c-5.523 0-10 4.477-10 10s4.477 10 10 10h116c5.523 0 10-4.477 10-10s-4.477-10-10-10h-69.002c4.456-22.094 23.399-38.924 46.771-39.95 13.559-.607 26.694 4.255 36.595 13.631 4.738 4.485 12.45 3.302 15.62-2.408 13.866-24.985 40.256-41.273 70.016-41.273 25.237 0 47.729 11.587 62.511 30.091-8.028 9.771-12.511 22.079-12.511 34.909 0 1.677.08 3.344.23 5h-60.229c-5.523 0-10 4.477-10 10s4.477 10 10 10h285.999c5.523 0 10-4.477 10-10s-4.477-10-10-10h-26.712c-4.122-29.008-25.926-52.295-54.423-58.409 18.221-66.346 81.477-98.665 86.682-103.271 3.667-2.444 5.301-7 4.024-11.218-1.277-4.217-5.164-7.102-9.571-7.102h-5.15c-23.748 0-48.969 3.891-71.657 10.793 36.075-52.15 77.047-77.826 82.805-82.792 3.737-2.802 5.037-7.817 3.131-12.082-1.905-4.265-6.51-6.641-11.09-5.726-59.027 11.803-113.121 41.271-154.166 81.785 5.8-44.384 18.891-87.157 39.07-127.506 1.925-3.85 1.171-8.5-1.873-11.543s-7.693-3.799-11.543-1.874c-53.107 26.553-95.227 73.69-114.547 133.46-30.932-67.517-81.867-124.715-145.836-163.091-3.936-2.362-8.972-1.741-12.216 1.504-3.245 3.245-3.864 8.281-1.504 12.215 33.929 59.371 56.16 85.291 73.176 138.191-43.566-41.105-103.257-63.336-160.601-63.336-4.304 0-8.125 2.754-9.487 6.837-1.36 4.086.044 8.582 3.487 11.165zm140.751 203.689c-9.912-6.605-21.34-10.556-33.318-11.477-8.848-36.135-32.904-71.499-66.53-98.104 27.01 3.765 53.535 12.432 74.854 24.733 15.528 22.407 28.623 45.628 39.003 69.151-5.225 4.744-9.911 9.986-14.009 15.697zm310.252 48.311h-158.643c-.234-1.646-.359-3.314-.359-5 0-10.144 4.398-19.78 12.066-26.439 6.358-5.521 14.502-8.561 22.934-8.561 10.298 0 20.028 4.505 26.696 12.361.003.003.006.006.009.01 3.66 4.3 10.219 4.713 14.389.875.002-.002.004-.003.006-.005 9.807-9.045 22.74-13.783 36.142-13.19 23.362 1.025 42.305 17.855 46.76 39.949zm-54.434-59.79c-7.919.611-15.608 2.555-22.78 5.714 4.837-29.941 15.015-59.255 30.342-87.437 17.291-7.882 38.005-13.587 59.038-16.434-33.662 26.611-57.745 61.998-66.6 98.157zm56.565-176.649c-51.949 48.319-89.375 112.728-99.695 183.214-8.008-4.392-17.07-6.774-26.438-6.774-9.601 0-18.96 2.521-27.193 7.206-3.369-4.172-7.062-8.07-11.069-11.662 5.395-11.827 14.226-47.274 48.116-88.472 30.248-36.785 71.132-65.889 116.279-83.512zm-103.451-58.56c-17.174 42.023-27.334 86.246-30.315 131.889-15.45 19.222-28.093 40.032-37.675 62.035-3.492-21.471-8.902-42.632-16.097-63.119 9.981-52.962 40.546-99.982 84.087-130.805zm-215.232-20.352c50.54 40.223 89.401 94.083 111.41 155.287 8.694 24.164 14.723 49.359 17.917 74.885l.569 4.552c-13.131-6.161-27.468-9.373-42.346-9.373-6.771 0-13.456.687-20 2.016v-20.617c0-114.725-56.925-186.293-67.55-206.75zm42.642 151.028c3.246 18.328 4.908 37.061 4.908 55.723v26.94c-3.701 1.617-7.295 3.452-10.766 5.501-30.006-66.012-77.715-124.261-133.563-171.405 56.031 8.59 108.398 39.338 139.421 83.241z"/><circle cx="171.001" cy="436.001" r="10"/></g></g></svg>