<?xml version="1.0"?>
<svg xmlns="http://www.w3.org/2000/svg" viewBox="0 0 64 64" width="512" height="512"><g id="outline"><path d="M7.293,34.707A1.043,1.043,0,0,0,8,35V61a1,1,0,0,0,1,1H51a1,1,0,0,0,1-1V35a1,1,0,0,0,.707-.293l3-3a1,1,0,0,0,.015-1.4l-24.939-26A1,1,0,0,0,30.063,4h0a1,1,0,0,0-.721.306L18,16.072V12h1a1,1,0,0,0,1-1V5a1,1,0,0,0-1-1H7A1,1,0,0,0,6,5v6a1,1,0,0,0,1,1H8V26.447L4.28,30.306a1,1,0,0,0,.013,1.4ZM14,60H10V58h4Zm0-4H10V54h4Zm10,4H16V46h8Zm0-16H16V40h8Zm5,16H26V58h3Zm-3-4V54h6v2Zm11,4H31V58h6Zm-3-4V54h8v2Zm11,4H39V58h6Zm5,0H47V58h3Zm0-4H44V54h6Zm0-4H26V39a1,1,0,0,0-1-1H15a1,1,0,0,0-1,1V52H10V34H50ZM11.3,32,30,12.447,48.7,32ZM8,6H18v4H8Zm2,12V16h4V14H10V12h6v6.147l-6,6.225V20h4V18ZM30.06,6.443,53.6,30.985,52.016,32.57,30.723,10.309a1,1,0,0,0-1.446,0L7.984,32.57,6.4,30.987Z"/><rect x="20" y="52" width="2" height="2"/><path d="M31,50H43a1,1,0,0,0,1-1V39a1,1,0,0,0-1-1H31a1,1,0,0,0-1,1V49A1,1,0,0,0,31,50Zm7-10h4v8H38Zm-6,0h4v8H32Z"/><path d="M43,14H59a1,1,0,0,0,1-1V9a3,3,0,0,0-4.065-2.8,5,5,0,0,0-9.87,0A3,3,0,0,0,42,9v4A1,1,0,0,0,43,14Zm1-5a1,1,0,0,1,2,0,1,1,0,0,0,2,0V7a3,3,0,0,1,6,0V9a1,1,0,0,0,2,0,1,1,0,0,1,2,0v3H44Z"/></g></svg>
