<svg height="512" viewBox="0 0 64 64" width="512" xmlns="http://www.w3.org/2000/svg"><g id="Filled_outline" data-name="Filled outline"><path d="m3 14h35v24h-35z" fill="#195c85"/><path d="m58 26-5-9a5.731 5.731 0 0 0 -5-3h-10v24h14l2 5h7v-13a3.585 3.585 0 0 0 -2-3z" fill="#dd3e46"/><path d="m3 38v5h51l-2-5z" fill="#143441"/><path d="m43 18h6l4 7v3h-10z" fill="#f4f4e6"/><path d="m57 24.2v6.8a2 2 0 0 0 2 2h2v-3a3.585 3.585 0 0 0 -2-3l-1-1z" fill="#f9bb4b"/><circle cx="11" cy="44" fill="#394d5c" r="6"/><circle cx="11" cy="44" fill="#f4f4e6" r="2"/><circle cx="44" cy="44" fill="#394d5c" r="6"/><circle cx="44" cy="44" fill="#f4f4e6" r="2"/><path d="m22 22h12v8h-12z" fill="#d3843d"/><path d="m34 30h-12l-4 8h5l2-4h4c1.157 0 2.306-.075 3-1z" fill="#ffd782"/><path d="m7 30h8v4h-8z" fill="#f4f4e6"/><path d="m49.868 17.5a1 1 0 0 0 -.868-.5h-6a1 1 0 0 0 -1 1v10a1 1 0 0 0 1 1h10a1 1 0 0 0 1-1v-3a.993.993 0 0 0 -.132-.5zm2.132 9.5h-8v-8h4.42l3.58 6.266z"/><path d="m42 31h4v2h-4z"/><path d="m59.639 26.225-.833-.833-4.942-8.9a6.705 6.705 0 0 0 -5.864-3.492h-45a1 1 0 0 0 -1 1v29a1 1 0 0 0 1 1h1a7 7 0 0 0 14 0h19a7 7 0 0 0 14 0h10a1 1 0 0 0 1-1v-13a4.525 4.525 0 0 0 -2.361-3.775zm-55.639-11.225h33v22h-12.382l1-2h3.382a4.4 4.4 0 0 0 3.832-1.445l1.985-3.01a.976.976 0 0 0 .183-.545v-8a1 1 0 0 0 -1-1h-12a1 1 0 0 0 -1 1v7.764l-3.618 7.236h-13.382zm28.132 16-.932 1.4c-.378.5-1.065.6-2.2.6h-4a1 1 0 0 0 -.895.553l-1.723 3.447h-2.764l3-6zm-9.132-2v-6h10v6zm-19 13v-3h2.111a7 7 0 0 0 -1.811 3zm7 7a5 5 0 1 1 5-5 5.006 5.006 0 0 1 -5 5zm6.7-7a7 7 0 0 0 -1.816-3h23.227a7 7 0 0 0 -1.811 3zm26.3 7a5 5 0 1 1 5-5 5.006 5.006 0 0 1 -5 5zm6.7-7a7 7 0 0 0 -1.816-3h2.434l1.2 3zm9.3-4h-4v2h4v2h-5.323l-1.748-4.371a1 1 0 0 0 -.929-.629h-13v-22h9a4.742 4.742 0 0 1 4.126 2.485l3.874 6.974v6.541a3 3 0 0 0 3 3h1zm0-6h-1a1 1 0 0 1 -1-1v-3.586s.391.382.445.418c1.134.755 1.555 1.343 1.555 2.168z"/><path d="m11 41a3 3 0 1 0 3 3 3 3 0 0 0 -3-3zm0 4a1 1 0 1 1 1-1 1 1 0 0 1 -1 1z"/><path d="m44 41a3 3 0 1 0 3 3 3 3 0 0 0 -3-3zm0 4a1 1 0 1 1 1-1 1 1 0 0 1 -1 1z"/><path d="m6 17h13v2h-13z"/><path d="m7 21h7v2h-7z"/><path d="m29 25h2v2h-2z"/><path d="m15 29h-8a1 1 0 0 0 -1 1v4a1 1 0 0 0 1 1h8a1 1 0 0 0 1-1v-4a1 1 0 0 0 -1-1zm-1 4h-6v-2h6z"/></g></svg>