<svg enable-background="new 0 0 24 24" height="512" viewBox="0 0 24 24" width="512" xmlns="http://www.w3.org/2000/svg"><path d="m12.975 4.525h-4.95c-.369 0-.675.306-.675.675v8.1c0 .369.306.675.675.675h4.95c.369 0 .675-.306.675-.675v-8.1c0-.369-.306-.675-.675-.675z" fill="#ffb74d"/><path d="m7.5 7.375h-4.5c-.369 0-.675.306-.675.675v5.4c0 .369.306.675.675.675h4.5c.369 0 .675-.306.675-.675v-5.4c0-.369-.306-.675-.675-.675z" fill="#ffa726"/><path d="m15.232 17.819v-4.069h-13.771c-.389 0-.699.264-.699.581v3.488c0 .318.309.581.699.581h14.52c-.41 0-.749-.264-.749-.581z" fill="#cfd8dc"/><path d="m23.525 11.875v5.85c0 .371-.304.675-.675.675h-7.875v-10.125c0-.371.304-.675.675-.675h3.6c2.361 0 4.275 1.914 4.275 4.275z" fill="#78909c"/><path d="m19.25 20.478c-1.228 0-2.228-.999-2.228-2.228s.999-2.227 2.228-2.227 2.228.999 2.228 2.227-1 2.228-2.228 2.228z" fill="#455a64"/><path d="m4.75 20.478c-1.228 0-2.227-.999-2.227-2.228s.999-2.227 2.227-2.227 2.227.999 2.227 2.227-.999 2.228-2.227 2.228z" fill="#455a64"/><path d="m13.25 14.5h-5.5c-.414 0-.75-.336-.75-.75v-9c0-.414.336-.75.75-.75h5.5c.414 0 .75.336.75.75v9c0 .414-.336.75-.75.75zm-4.75-1.5h4v-7.5h-4z"/><path d="m7.75 14.5h-5c-.414 0-.75-.336-.75-.75v-6c0-.414.336-.75.75-.75h5c.414 0 .75.336.75.75s-.336.75-.75.75h-4.25v4.5h4.25c.414 0 .75.336.75.75s-.336.75-.75.75z"/><path d="m5.25 10.643c-.414 0-.75-.336-.75-.75v-2.143c0-.414.336-.75.75-.75s.75.336.75.75v2.143c0 .414-.336.75-.75.75z"/><path d="m10.75 7.536c-.414 0-.75-.336-.75-.75v-2.036c0-.414.336-.75.75-.75s.75.336.75.75v2.036c0 .414-.336.75-.75.75z"/><path d="m15.25 19h-8.5c-.414 0-.75-.336-.75-.75s.336-.75.75-.75h7.75v-3h-13v3h1.25c.414 0 .75.336.75.75s-.336.75-.75.75h-2c-.414 0-.75-.336-.75-.75v-4.5c0-.414.336-.75.75-.75h13.75v-5.25c0-.414.336-.75.75-.75s.75.336.75.75v10.5c0 .414-.336.75-.75.75z"/><path d="m23.25 19h-2c-.414 0-.75-.336-.75-.75s.336-.75.75-.75h1.25v-5.75c0-1.792-1.458-3.25-3.25-3.25h-3.25v9h1.25c.414 0 .75.336.75.75s-.336.75-.75.75h-2c-.414 0-.75-.336-.75-.75v-10.5c0-.414.336-.75.75-.75h4c2.619 0 4.75 2.131 4.75 4.75v6.5c0 .414-.336.75-.75.75z"/><path d="m19.25 21c-1.517 0-2.75-1.233-2.75-2.75s1.233-2.75 2.75-2.75 2.75 1.233 2.75 2.75-1.233 2.75-2.75 2.75zm0-4c-.689 0-1.25.561-1.25 1.25s.561 1.25 1.25 1.25 1.25-.561 1.25-1.25-.561-1.25-1.25-1.25z"/><path d="m4.75 21c-1.517 0-2.75-1.233-2.75-2.75s1.233-2.75 2.75-2.75 2.75 1.233 2.75 2.75-1.233 2.75-2.75 2.75zm0-4c-.689 0-1.25.561-1.25 1.25s.561 1.25 1.25 1.25 1.25-.561 1.25-1.25-.561-1.25-1.25-1.25z"/></svg>